<svg width="48" height="48" viewBox="0 0 48 48" fill="none" xmlns="http://www.w3.org/2000/svg">
    <path d="M44 38.461H41.266C41.207 37.761 40.799 36.63 38.958 35.73C37.676 35.104 37.518 34.622 37.509 34.443C37.496 34.171 37.772 33.901 38.035 33.743C38.2747 33.6131 38.4808 33.4291 38.637 33.2057C38.7933 32.9823 38.8953 32.7256 38.935 32.456C39.055 31.534 38.435 30.372 37.035 28.903C36.2836 27.99 35.8426 26.8615 35.776 25.681C38.1128 27.8248 40.8372 29.5032 43.803 30.626C43.8636 30.6514 43.9285 30.6647 43.9942 30.6651C44.0599 30.6655 44.125 30.6529 44.1858 30.6281C44.2467 30.6033 44.302 30.5668 44.3487 30.5206C44.3954 30.4744 44.4326 30.4195 44.458 30.359C44.4835 30.2984 44.4968 30.2334 44.4972 30.1678C44.4976 30.1021 44.485 30.037 44.4602 29.9762C44.4354 29.9153 44.3989 29.86 44.3527 29.8133C44.3065 29.7666 44.2516 29.7294 44.191 29.704C37.519 26.897 35.682 24.051 35.665 24.025C35.659 24.015 35.648 24.011 35.642 24.001C35.6108 23.9595 35.5737 23.9228 35.532 23.892C35.5164 23.8781 35.5 23.8651 35.483 23.853C35.4218 23.8172 35.3536 23.795 35.283 23.788H35.276C35.266 23.788 35.257 23.788 35.247 23.788C35.1831 23.7872 35.1196 23.7988 35.06 23.822C35.0437 23.8298 35.028 23.8388 35.013 23.849C34.9643 23.8745 34.9203 23.9084 34.883 23.949C34.875 23.958 34.862 23.961 34.854 23.971C32.994 26.287 29.733 28.094 26.941 29.322C26.8901 29.1364 26.8497 28.9481 26.82 28.758C27.3489 28.651 27.823 28.3606 28.1588 27.9382C28.4945 27.5158 28.6702 26.9883 28.655 26.449C28.6605 26.3165 28.613 26.1873 28.5232 26.0898C28.4334 25.9923 28.3085 25.9344 28.176 25.929C28.11 25.9249 28.0439 25.9342 27.9816 25.9564C27.9193 25.9786 27.8622 26.0131 27.8136 26.058C27.765 26.1028 27.726 26.157 27.6989 26.2174C27.6719 26.2777 27.6573 26.3428 27.656 26.409C27.6758 26.7051 27.5945 26.9992 27.4257 27.2433C27.2568 27.4874 27.0101 27.667 26.726 27.753C26.6975 26.8406 26.7409 25.9274 26.856 25.022C26.8655 24.9558 26.8616 24.8885 26.8446 24.8239C26.8277 24.7593 26.7979 24.6988 26.7571 24.6458C26.7163 24.5929 26.6654 24.5487 26.6072 24.5159C26.5491 24.483 26.485 24.4621 26.4186 24.4544C26.3523 24.4467 26.285 24.4524 26.2209 24.4711C26.1568 24.4898 26.0971 24.5212 26.0453 24.5634C25.9935 24.6056 25.9507 24.6577 25.9194 24.7167C25.8881 24.7757 25.8689 24.8404 25.863 24.907C25.801 25.436 25.763 25.914 25.74 26.351C25.5227 26.5037 25.2547 26.5668 24.992 26.527C24.854 26.461 24.757 26.18 24.733 25.775C24.7314 25.708 24.716 25.6422 24.6879 25.5815C24.6598 25.5207 24.6195 25.4664 24.5695 25.4219C24.5196 25.3774 24.461 25.3436 24.3974 25.3226C24.3339 25.3016 24.2667 25.2939 24.2 25.3C24.0677 25.3079 23.944 25.3681 23.856 25.4673C23.7681 25.5665 23.7231 25.6966 23.731 25.829C23.7068 26.1463 23.7716 26.4642 23.918 26.7468C24.0644 27.0295 24.2868 27.2657 24.56 27.429C24.7348 27.51 24.9254 27.551 25.118 27.549C25.3206 27.5445 25.5211 27.5077 25.712 27.44C25.7014 28.2085 25.8025 28.9745 26.012 29.714C24.119 30.493 22.588 30.969 22.056 31.127C20.0091 29.9804 18.1656 28.5035 16.6 26.756C16.595 26.75 16.587 26.747 16.582 26.741C16.5526 26.7095 16.5189 26.6822 16.482 26.66C16.462 26.647 16.445 26.63 16.424 26.619C16.3786 26.5987 16.3304 26.5852 16.281 26.579C16.2666 26.5738 16.2519 26.5695 16.237 26.566H16.231C16.1994 26.5671 16.1679 26.5711 16.137 26.578C16.0411 26.5889 15.9505 26.6282 15.877 26.691C15.877 26.691 15.864 26.698 15.859 26.703C13.082 29.403 3.87004 33.903 3.77804 33.951C3.71895 33.9797 3.6661 34.0198 3.62251 34.069C3.57891 34.1182 3.54544 34.1755 3.52399 34.2376C3.50254 34.2997 3.49353 34.3655 3.49749 34.4311C3.50145 34.4967 3.51828 34.5609 3.54704 34.62C3.5758 34.679 3.61592 34.7319 3.6651 34.7755C3.71429 34.8191 3.77158 34.8526 3.8337 34.874C3.89582 34.8955 3.96156 34.9045 4.02716 34.9005C4.09277 34.8966 4.15695 34.8797 4.21604 34.851C4.57604 34.676 12.53 30.782 15.916 27.982C16.1361 29.1536 15.9065 30.3651 15.273 31.375C14.8552 31.8654 14.6392 32.4963 14.6689 33.14C14.6986 33.7837 14.9718 34.392 15.433 34.842C15.6978 35.1393 15.8932 35.4918 16.005 35.874C16.219 36.958 14.776 38.022 13.643 38.46H4.00004C3.86743 38.46 3.74026 38.5126 3.64649 38.6064C3.55272 38.7002 3.50004 38.8273 3.50004 38.96C3.50004 39.0926 3.55272 39.2197 3.64649 39.3135C3.74026 39.4073 3.86743 39.46 4.00004 39.46H44C44.1327 39.46 44.2598 39.4073 44.3536 39.3135C44.4474 39.2197 44.5 39.0926 44.5 38.96C44.5 38.8273 44.4474 38.7002 44.3536 38.6064C44.2598 38.5126 44.1327 38.461 44 38.461ZM16.99 35.681C16.8541 35.1486 16.5956 34.6555 16.235 34.241C16.0703 34.1 15.9358 33.9271 15.8399 33.7327C15.744 33.5382 15.6887 33.3263 15.6772 33.1098C15.6657 32.8933 15.6983 32.6767 15.773 32.4732C15.8478 32.2697 15.9631 32.0835 16.112 31.926C16.7477 30.9469 17.0568 29.7916 16.995 28.626C20.9359 32.2028 25.7836 34.6284 31.009 35.638C31.0439 35.6456 31.0794 35.6493 31.115 35.649C31.2387 35.6494 31.3582 35.6039 31.4503 35.5214C31.5424 35.4389 31.6007 35.3252 31.6139 35.2022C31.6271 35.0793 31.5942 34.9558 31.5217 34.8556C31.4491 34.7555 31.342 34.6857 31.221 34.66C28.4521 34.0714 25.7759 33.1092 23.266 31.8C25.707 31.007 31.408 28.89 34.76 25.543C34.8154 27.0261 35.3616 28.4488 36.313 29.588C37.835 31.188 37.989 31.988 37.945 32.323C37.9224 32.4448 37.8711 32.5596 37.7955 32.6578C37.7199 32.756 37.622 32.8349 37.51 32.888C37.2139 33.0388 36.9644 33.2675 36.7882 33.5493C36.6121 33.8312 36.5159 34.1556 36.51 34.488C36.548 35.273 37.224 35.988 38.519 36.625C39.874 37.287 40.193 38.025 40.259 38.457H21.117C21.2846 37.7942 21.4142 37.1225 21.505 36.445C21.652 36.4855 21.8036 36.5067 21.956 36.508C22.0975 36.5084 22.2383 36.4886 22.374 36.449C22.6322 36.3622 22.866 36.2153 23.0562 36.0204C23.2464 35.8255 23.3876 35.5881 23.468 35.328C23.4953 35.2664 23.5098 35.2 23.5107 35.1327C23.5116 35.0654 23.499 34.9986 23.4735 34.9363C23.448 34.874 23.4101 34.8175 23.3623 34.7702C23.3144 34.7228 23.2575 34.6857 23.1949 34.6609C23.1323 34.6361 23.0654 34.6242 22.9981 34.6259C22.9308 34.6276 22.8645 34.6429 22.8033 34.6708C22.7421 34.6987 22.6871 34.7387 22.6417 34.7884C22.5963 34.8381 22.5614 34.8964 22.539 34.96C22.42 35.26 22.272 35.436 22.097 35.488C21.9357 35.5218 21.7676 35.5014 21.619 35.43C21.654 35.037 21.683 34.63 21.696 34.184C21.698 34.1183 21.6871 34.0529 21.6638 33.9914C21.6405 33.93 21.6053 33.8738 21.5603 33.8259C21.5152 33.7781 21.4612 33.7396 21.4013 33.7127C21.3414 33.6858 21.2767 33.6709 21.211 33.669C21.0822 33.6773 20.9603 33.7302 20.8663 33.8188C20.7723 33.9073 20.7121 34.0258 20.696 34.154C20.6686 35.0837 20.5757 36.0103 20.418 36.927C20.2013 36.8944 20.0022 36.7885 19.854 36.627C19.7593 36.4817 19.7259 36.3048 19.761 36.135C19.7938 36.0078 19.7753 35.8729 19.7094 35.7593C19.6435 35.6458 19.5357 35.5627 19.409 35.528C19.3457 35.5105 19.2795 35.5057 19.2143 35.5139C19.1491 35.522 19.0861 35.5429 19.029 35.5755C18.9719 35.608 18.9217 35.6514 18.8814 35.7033C18.8411 35.7552 18.8114 35.8146 18.794 35.878C18.7389 36.1034 18.732 36.338 18.7737 36.5663C18.8154 36.7946 18.9048 37.0115 19.036 37.203C19.3271 37.5802 19.7494 37.8344 20.219 37.915C20.168 38.132 20.119 38.322 20.081 38.46H15.639C16.1006 38.1684 16.4717 37.7539 16.7103 37.2629C16.949 36.7719 17.0459 36.224 16.99 35.681ZM26.065 14.27C26.0392 14.208 26.0261 14.1415 26.0265 14.0744C26.0269 14.0073 26.0408 13.941 26.0674 13.8794C26.094 13.8178 26.1327 13.7622 26.1812 13.7158C26.2298 13.6695 26.2871 13.6334 26.3499 13.6097C26.4127 13.586 26.4796 13.5752 26.5466 13.5779C26.6137 13.5806 26.6795 13.5967 26.7402 13.6254C26.8008 13.6541 26.8551 13.6947 26.8997 13.7448C26.9444 13.7948 26.9785 13.8534 27 13.917C27.4634 15.1482 27.627 16.472 27.4772 17.7789C27.3275 19.0859 26.8688 20.3384 26.139 21.433C26.0653 21.5433 25.9508 21.6198 25.8206 21.6457C25.6905 21.6716 25.5554 21.6447 25.445 21.571C25.3347 21.4972 25.2582 21.3827 25.2323 21.2525C25.2064 21.1224 25.2333 20.9873 25.307 20.877C25.9485 19.9148 26.3518 18.8138 26.4836 17.665C26.6154 16.5161 26.4719 15.3524 26.065 14.27ZM13.655 11.37C13.5665 11.2713 13.5207 11.1415 13.5279 11.0091C13.535 10.8767 13.5944 10.7525 13.693 10.664C15.2138 9.2967 17.1865 8.54028 19.2315 8.54028C21.2766 8.54028 23.2493 9.2967 24.77 10.664C24.8663 10.7532 24.9237 10.8766 24.9297 11.0078C24.9358 11.1389 24.89 11.2671 24.8023 11.3648C24.7146 11.4625 24.592 11.5218 24.461 11.5298C24.33 11.5379 24.2011 11.4941 24.102 11.408C22.7647 10.2056 21.0299 9.54047 19.2315 9.54047C17.4332 9.54047 15.6984 10.2056 14.361 11.408C14.2624 11.4965 14.1326 11.5423 14.0002 11.5351C13.8678 11.528 13.7436 11.4686 13.655 11.37ZM10.934 16.838C10.9328 16.4007 10.9662 15.964 11.034 15.532C11.0423 15.4654 11.0639 15.4011 11.0975 15.343C11.1311 15.2849 11.1761 15.2342 11.2297 15.1939C11.2833 15.1535 11.3445 15.1244 11.4097 15.1082C11.4748 15.092 11.5425 15.0891 11.6088 15.0997C11.6751 15.1102 11.7385 15.134 11.7954 15.1696C11.8523 15.2052 11.9015 15.2519 11.9399 15.3069C11.9784 15.3618 12.0054 15.424 12.0193 15.4897C12.0333 15.5553 12.0339 15.6231 12.021 15.689C11.837 16.8442 11.9333 18.0268 12.3017 19.137C12.6702 20.2473 13.3002 21.2527 14.1384 22.0687C14.9767 22.8846 15.9988 23.4871 17.1186 23.8255C18.2385 24.1639 19.4232 24.2282 20.573 24.013C20.7025 23.9908 20.8354 24.0205 20.9432 24.0956C21.0509 24.1707 21.1247 24.2852 21.1488 24.4143C21.1728 24.5434 21.1451 24.6768 21.0716 24.7856C20.9981 24.8944 20.8848 24.97 20.756 24.996C19.5577 25.2199 18.3247 25.1772 17.1447 24.8708C15.9647 24.5643 14.8668 24.0017 13.9288 23.2229C12.9909 22.4441 12.236 21.4683 11.7179 20.3647C11.1998 19.2612 10.9311 18.0571 10.931 16.838H10.934ZM13.572 19.6C12.887 18.1946 12.7489 16.5848 13.1847 15.0833C13.6205 13.5819 14.599 12.2961 15.93 11.476C15.9859 11.438 16.0488 11.4118 16.115 11.3989C16.1813 11.3859 16.2494 11.3865 16.3154 11.4006C16.3814 11.4147 16.4439 11.442 16.499 11.4809C16.5542 11.5198 16.6009 11.5694 16.6364 11.6268C16.6718 11.6842 16.6953 11.7482 16.7054 11.815C16.7154 11.8817 16.7119 11.9498 16.695 12.0151C16.678 12.0804 16.648 12.1416 16.6068 12.1951C16.5656 12.2485 16.5139 12.293 16.455 12.326C15.3352 13.0157 14.5118 14.0972 14.145 15.3603C13.7781 16.6233 13.894 17.9776 14.47 19.16C14.4989 19.219 14.5159 19.2833 14.52 19.3489C14.5241 19.4146 14.5152 19.4804 14.4938 19.5426C14.4724 19.6048 14.439 19.6622 14.3955 19.7115C14.352 19.7608 14.2991 19.8011 14.24 19.83C14.1809 19.8588 14.1167 19.8758 14.0511 19.8799C13.9854 19.884 13.9196 19.8751 13.8574 19.8537C13.7952 19.8324 13.7378 19.799 13.6885 19.7554C13.6392 19.7119 13.5989 19.659 13.57 19.6H13.572ZM16.118 21.752C16.1794 21.6345 16.2848 21.5463 16.4112 21.5065C16.5376 21.4668 16.6745 21.4788 16.792 21.54C17.7376 22.0155 18.8021 22.2027 19.8532 22.0782C20.9043 21.9538 21.8957 21.5232 22.704 20.84C22.8042 20.753 22.9347 20.7093 23.067 20.7186C23.1994 20.7279 23.3226 20.7893 23.4095 20.8895C23.4965 20.9896 23.5402 21.1201 23.5309 21.2525C23.5216 21.3848 23.4602 21.508 23.36 21.595C22.4075 22.4238 21.2276 22.9468 19.9738 23.0959C18.72 23.245 17.4504 23.0133 16.33 22.431C16.2713 22.4006 16.2191 22.3589 16.1765 22.3082C16.134 22.2575 16.1019 22.1989 16.0822 22.1357C16.0625 22.0726 16.0555 22.0061 16.0617 21.9403C16.0678 21.8744 16.087 21.8104 16.118 21.752ZM25.531 16.837C25.5315 17.4183 25.451 17.9968 25.292 18.556C25.2769 18.622 25.2484 18.6843 25.2084 18.739C25.1685 18.7937 25.1178 18.8397 25.0595 18.8742C25.0012 18.9088 24.9364 18.9311 24.8692 18.9398C24.802 18.9485 24.7338 18.9435 24.6686 18.9251C24.6034 18.9066 24.5426 18.8751 24.4899 18.8325C24.4373 18.7898 24.3939 18.7369 24.3623 18.6769C24.3307 18.6169 24.3117 18.5512 24.3063 18.4836C24.3009 18.4161 24.3094 18.3482 24.331 18.284C24.5545 17.4956 24.592 16.6661 24.4408 15.8607C24.2895 15.0554 23.9536 14.2961 23.4594 13.6424C22.9652 12.9888 22.3261 12.4587 21.5925 12.0937C20.8588 11.7287 20.0505 11.5388 19.231 11.539C19.0984 11.539 18.9713 11.4863 18.8775 11.3925C18.7837 11.2987 18.731 11.1716 18.731 11.039C18.731 10.9063 18.7837 10.7792 18.8775 10.6854C18.9713 10.5916 19.0984 10.539 19.231 10.539C20.9011 10.5405 22.5023 11.2045 23.6834 12.3852C24.8644 13.5659 25.5289 15.1669 25.531 16.837ZM19.231 21.137C20.0815 21.137 20.9129 20.8848 21.62 20.4123C22.3271 19.9398 22.8783 19.2682 23.2037 18.4825C23.5292 17.6968 23.6143 16.8322 23.4484 15.9981C23.2825 15.1639 22.873 14.3978 22.2716 13.7964C21.6702 13.195 20.904 12.7855 20.0699 12.6196C19.2358 12.4537 18.3712 12.5388 17.5855 12.8643C16.7998 13.1897 16.1282 13.7409 15.6557 14.448C15.1832 15.1551 14.931 15.9865 14.931 16.837C14.9312 17.4016 15.0425 17.9608 15.2587 18.4824C15.475 19.0041 15.7918 19.478 16.1912 19.8772C16.5906 20.2764 17.0647 20.593 17.5864 20.809C18.1082 21.025 18.6674 21.1361 19.232 21.136L19.231 21.137ZM19.231 13.537C19.8837 13.537 20.5217 13.7305 21.0644 14.0931C21.6071 14.4557 22.0301 14.9711 22.2798 15.5741C22.5296 16.1771 22.595 16.8406 22.4676 17.4808C22.3403 18.1209 22.026 18.7089 21.5645 19.1704C21.103 19.6319 20.515 19.9462 19.8748 20.0735C19.2347 20.2009 18.5712 20.1355 17.9682 19.8858C17.3652 19.636 16.8498 19.213 16.4872 18.6703C16.1246 18.1277 15.931 17.4896 15.931 16.837C15.9316 15.9619 16.2796 15.1229 16.8987 14.5044C17.5177 13.886 18.357 13.5387 19.232 13.539L19.231 13.537Z" fill="black"/>
</svg>
