<svg width="24" height="24" viewBox="0 0 24 24" fill="none" xmlns="http://www.w3.org/2000/svg">
    <g clip-path="url(#clip0_224_2000)">
        <path d="M17.5 13.75C17.2033 13.75 16.9133 13.838 16.6666 14.0028C16.42 14.1676 16.2277 14.4019 16.1142 14.676C16.0007 14.9501 15.9709 15.2517 16.0288 15.5426C16.0867 15.8336 16.2296 16.1009 16.4393 16.3107C16.6491 16.5204 16.9164 16.6633 17.2074 16.7212C17.4983 16.7791 17.7999 16.7493 18.074 16.6358C18.3481 16.5223 18.5824 16.33 18.7472 16.0834C18.912 15.8367 19 15.5467 19 15.25C19 14.8522 18.842 14.4706 18.5607 14.1893C18.2794 13.908 17.8978 13.75 17.5 13.75ZM17.5 15.75C17.4011 15.75 17.3044 15.7207 17.2222 15.6657C17.14 15.6108 17.0759 15.5327 17.0381 15.4413C17.0002 15.35 16.9903 15.2494 17.0096 15.1525C17.0289 15.0555 17.0765 14.9664 17.1464 14.8964C17.2164 14.8265 17.3055 14.7789 17.4025 14.7596C17.4994 14.7403 17.6 14.7502 17.6913 14.7881C17.7827 14.8259 17.8608 14.89 17.9157 14.9722C17.9707 15.0544 18 15.1511 18 15.25C18 15.3826 17.9473 15.5098 17.8536 15.6036C17.7598 15.6973 17.6326 15.75 17.5 15.75ZM23.89 10.93C23.8317 10.8596 23.7552 10.8065 23.6688 10.7765C23.5824 10.7465 23.4894 10.7408 23.4 10.76L19 11.68V11.25C19 10.8522 18.842 10.4706 18.5607 10.1893C18.2794 9.90804 17.8978 9.75 17.5 9.75H17V9.08C17.0011 8.72824 16.8785 8.38729 16.6536 8.11676C16.4288 7.84623 16.116 7.66332 15.77 7.6L13 7.1V4.25C13 4.11739 12.9473 3.99021 12.8536 3.89645C12.7598 3.80268 12.6326 3.75 12.5 3.75H8.5C8.36739 3.75 8.24021 3.80268 8.14645 3.89645C8.05268 3.99021 8 4.11739 8 4.25V6.2L6.77 6C6.55584 5.96078 6.33571 5.96865 6.12489 6.02306C5.91408 6.07748 5.71764 6.17713 5.54921 6.31511C5.38079 6.45308 5.24442 6.62607 5.14958 6.82205C5.05474 7.01803 5.0037 7.23231 5 7.45V9.75H4.5C4.10218 9.75 3.72064 9.90804 3.43934 10.1893C3.15804 10.4706 3 10.8522 3 11.25V14.48L1.41 14.76C1.29522 14.781 1.19141 14.8415 1.11653 14.931C1.04165 15.0205 1.00043 15.1333 1 15.25V19.11C0.8392 19.0505 0.67094 19.0134 0.5 19C0.367392 19 0.240215 19.0527 0.146447 19.1464C0.0526784 19.2402 0 19.3674 0 19.5C0 19.6326 0.0526784 19.7598 0.146447 19.8536C0.240215 19.9473 0.367392 20 0.5 20C0.678367 19.9956 0.853493 20.0482 1 20.15C1.30038 20.3344 1.64762 20.4282 2 20.42C2.35238 20.4282 2.69962 20.3344 3 20.15C3.14681 20.0488 3.32173 19.9963 3.5 20C3.67827 19.9963 3.85319 20.0488 4 20.15C4.30038 20.3344 4.64762 20.4282 5 20.42C5.35238 20.4282 5.69962 20.3344 6 20.15C6.1502 20.057 6.32335 20.0078 6.5 20.0078C6.67665 20.0078 6.8498 20.057 7 20.15C7.30157 20.3327 7.64741 20.4293 8 20.4293C8.35259 20.4293 8.69843 20.3327 9 20.15C9.1502 20.057 9.32335 20.0078 9.5 20.0078C9.67665 20.0078 9.8498 20.057 10 20.15C10.3019 20.3316 10.6476 20.4276 11 20.4276C11.3524 20.4276 11.6981 20.3316 12 20.15C12.1498 20.0559 12.3231 20.006 12.5 20.006C12.6769 20.006 12.8502 20.0559 13 20.15C13.3023 20.3306 13.6479 20.4259 14 20.4259C14.3521 20.4259 14.6977 20.3306 15 20.15C15.1502 20.057 15.3234 20.0078 15.5 20.0078C15.6766 20.0078 15.8498 20.057 16 20.15C16.3023 20.3306 16.6479 20.4259 17 20.4259C17.3521 20.4259 17.6977 20.3306 18 20.15C18.1496 20.0468 18.3283 19.9942 18.51 20C18.6915 19.9956 18.8698 20.048 19.02 20.15C19.324 20.3255 19.6689 20.4179 20.02 20.4179C20.3711 20.4179 20.716 20.3255 21.02 20.15C21.1617 20.0538 21.3287 20.0017 21.5 20C21.6326 20 21.7598 19.9473 21.8536 19.8536C21.9473 19.7598 22 19.6326 22 19.5C22 19.3674 21.9473 19.2402 21.8536 19.1464C21.7598 19.0527 21.6326 19 21.5 19C21.1486 18.9888 20.8014 19.0791 20.5 19.26L24 11.45C24.0324 11.3617 24.0393 11.2662 24.0198 11.1742C24.0004 11.0822 23.9554 10.9976 23.89 10.93ZM9 4.75H12V6.92L9 6.38V4.75ZM6 7.45C5.99992 7.37727 6.01603 7.30544 6.04717 7.23971C6.0783 7.17398 6.12368 7.11601 6.18 7.07C6.23931 7.02959 6.30663 7.00242 6.37738 6.99034C6.44812 6.97827 6.52064 6.98156 6.59 7L15.59 8.64C15.7048 8.661 15.8086 8.72148 15.8835 8.81097C15.9583 8.90046 15.9996 9.01332 16 9.13V9.8H6V7.45ZM4 11.25C4 11.1174 4.05268 10.9902 4.14645 10.8964C4.24021 10.8027 4.36739 10.75 4.5 10.75H17.5C17.6326 10.75 17.7598 10.8027 17.8536 10.8964C17.9473 10.9902 18 11.1174 18 11.25V11.87L4 14.31V11.25ZM19.44 19.25C19.1526 19.0802 18.8237 18.9936 18.49 19C18.1377 18.9924 17.7906 19.0861 17.49 19.27C17.3398 19.363 17.1666 19.4122 16.99 19.4122C16.8134 19.4122 16.6402 19.363 16.49 19.27C16.1881 19.0884 15.8424 18.9924 15.49 18.9924C15.1376 18.9924 14.7919 19.0884 14.49 19.27C14.3398 19.363 14.1666 19.4122 13.99 19.4122C13.8134 19.4122 13.6402 19.363 13.49 19.27C13.1881 19.0884 12.8424 18.9924 12.49 18.9924C12.1376 18.9924 11.7919 19.0884 11.49 19.27C11.3402 19.3641 11.1669 19.414 10.99 19.414C10.8131 19.414 10.6398 19.3641 10.49 19.27C10.1881 19.0884 9.84236 18.9924 9.49 18.9924C9.13764 18.9924 8.79194 19.0884 8.49 19.27C8.3402 19.3641 8.1669 19.414 7.99 19.414C7.8131 19.414 7.6398 19.3641 7.49 19.27C7.18806 19.0884 6.84236 18.9924 6.49 18.9924C6.13764 18.9924 5.79194 19.0884 5.49 19.27C5.34041 19.3732 5.16167 19.4258 4.98 19.42C4.80173 19.4237 4.62681 19.3712 4.48 19.27C4.17962 19.0856 3.83238 18.9918 3.48 19C3.12762 18.9918 2.78038 19.0856 2.48 19.27C2.33319 19.3712 2.15827 19.4237 1.98 19.42V15.67L18.58 12.78L22.63 11.94L19.44 19.25Z" fill="black"/>
    </g>
    <defs>
        <clipPath id="clip0_224_2000">
            <rect width="24" height="24" fill="white"/>
        </clipPath>
    </defs>
</svg>
