<svg width="64" height="64" viewBox="0 0 64 64" fill="none" xmlns="http://www.w3.org/2000/svg">
    <path d="M4.99983 55H1.99983C1.82332 55 1.64997 54.9532 1.49738 54.8645C1.34479 54.7758 1.2184 54.6483 1.13105 54.4949C1.0437 54.3415 0.998497 54.1678 1.00004 53.9913C1.00158 53.8148 1.04981 53.6418 1.13983 53.49L13.6198 32.7C13.9697 32.1159 14.465 31.6325 15.0573 31.2968C15.6497 30.9611 16.319 30.7847 16.9998 30.7847C17.6807 30.7847 18.3499 30.9611 18.9423 31.2968C19.5347 31.6325 20.0299 32.1159 20.3798 32.7L26.2598 42.48C26.3476 42.632 26.3938 42.8045 26.3938 42.98C26.3938 43.1556 26.3476 43.328 26.2598 43.48C26.1751 43.6349 26.0509 43.7646 25.8999 43.8559C25.7488 43.9472 25.5763 43.997 25.3998 44C24.5169 44.0219 23.6752 44.3777 23.0442 44.9956C22.4132 45.6136 22.04 46.4478 21.9998 47.33C21.9903 47.5061 21.9345 47.6765 21.8379 47.8241C21.7413 47.9716 21.6074 48.0909 21.4498 48.17C21.2926 48.2488 21.1173 48.2848 20.9418 48.2743C20.7662 48.2637 20.5965 48.2071 20.4498 48.11L20.3298 48.05C20.1775 48.0257 20.0222 48.0257 19.8698 48.05C19.7731 48.0901 19.6726 48.1203 19.5698 48.14L19.4298 48.21H19.3698C19.3093 48.2556 19.2554 48.3095 19.2098 48.37C19.1707 48.4159 19.1372 48.4663 19.1098 48.52C19.0776 48.5843 19.0508 48.6512 19.0298 48.72C18.9792 48.8945 18.882 49.0519 18.7487 49.1753C18.6154 49.2987 18.451 49.3835 18.2731 49.4205C18.0953 49.4575 17.9107 49.4454 17.7392 49.3854C17.5677 49.3254 17.4158 49.2198 17.2998 49.08C16.9818 48.6942 16.5723 48.3939 16.1087 48.2066C15.645 48.0193 15.1419 47.9508 14.6451 48.0075C14.1482 48.0641 13.6734 48.244 13.2638 48.5309C12.8543 48.8178 12.5229 49.2025 12.2998 49.65C12.1925 49.8605 12.0141 50.0262 11.7963 50.1177C11.5785 50.2092 11.3353 50.2207 11.1098 50.15C10.7484 50.0496 10.3749 49.9991 9.99983 50C8.93896 50 7.92154 50.4214 7.1714 51.1716C6.42125 51.9217 5.99983 52.9392 5.99983 54C5.99983 54.2652 5.89447 54.5196 5.70693 54.7071C5.5194 54.8947 5.26504 55 4.99983 55ZM3.76983 53H4.07983C4.13523 52.695 4.21208 52.3942 4.30983 52.1L3.76983 53ZM16.9998 32.78C16.6656 32.7804 16.3371 32.8672 16.0463 33.0319C15.7555 33.1966 15.5121 33.4336 15.3398 33.72L5.63983 49.89C6.31451 49.169 7.1567 48.6257 8.09171 48.3082C9.02671 47.9907 10.0256 47.9089 10.9998 48.07C11.7684 47.0082 12.9231 46.2906 14.2155 46.0718C15.5079 45.8529 16.8346 46.1504 17.9098 46.9C17.9924 46.812 18.0828 46.7317 18.1798 46.66C18.2694 46.5808 18.3666 46.5104 18.4698 46.45L18.8598 46.25H19.0098C19.172 46.1764 19.3436 46.1259 19.5198 46.1C19.7653 46.065 20.0144 46.065 20.2598 46.1C20.5069 45.2322 20.9622 44.4379 21.5861 43.7861C22.21 43.1343 22.9837 42.6448 23.8398 42.36L18.7098 33.81C18.5449 33.4995 18.2987 33.2396 17.9975 33.0582C17.6963 32.8768 17.3514 32.7806 16.9998 32.78Z" fill="black"/>
    <path d="M62 55.0001H50C49.7661 55.0048 49.5379 54.9274 49.3551 54.7812C49.1724 54.635 49.0468 54.4294 49 54.2001C48.9299 53.8562 48.7414 53.5478 48.4673 53.3285C48.1932 53.1092 47.8509 52.993 47.5 53.0001C47.3936 52.9898 47.2864 52.9898 47.18 53.0001C47.0363 53.0272 46.8884 53.0224 46.7467 52.9862C46.605 52.9499 46.473 52.883 46.36 52.7901C46.2471 52.6961 46.1563 52.5784 46.0941 52.4453C46.0319 52.3122 45.9998 52.167 46 52.0201C46 51.7549 45.8946 51.5005 45.7071 51.313C45.5196 51.1255 45.2652 51.0201 45 51.0201C44.8379 51.0113 44.6771 51.0532 44.54 51.1401C44.3924 51.2356 44.2223 51.2905 44.0467 51.2993C43.8711 51.3081 43.6964 51.2704 43.54 51.1901C43.3828 51.1089 43.2501 50.9874 43.1552 50.838C43.0603 50.6887 43.0068 50.5169 43 50.3401C42.9638 49.3659 42.6114 48.4299 41.9962 47.6736C41.381 46.9173 40.5363 46.3819 39.5898 46.1481C38.6434 45.9143 37.6465 45.9949 36.7499 46.3777C35.8533 46.7605 35.1057 47.4248 34.62 48.2701C34.5299 48.4306 34.3973 48.5632 34.2368 48.6532C34.0762 48.7432 33.8939 48.7871 33.71 48.7801C33.5256 48.7731 33.3467 48.7152 33.1932 48.6129C33.0396 48.5105 32.9174 48.3677 32.84 48.2001C32.6839 47.8424 32.4265 47.5381 32.0995 47.3249C31.7725 47.1117 31.3903 46.9988 31 47.0001C30.9136 46.9898 30.8264 46.9898 30.74 47.0001L30.38 46.0601L30.58 47.0601H30.48C30.4301 47.0644 30.3799 47.0644 30.33 47.0601L30.14 47.1301C30.0121 47.1732 29.8767 47.19 29.7422 47.1794C29.6076 47.1688 29.4765 47.131 29.3569 47.0684C29.2373 47.0058 29.1316 46.9197 29.0462 46.8151C28.9608 46.7106 28.8975 46.5898 28.86 46.4601C28.6345 45.746 28.1871 45.1224 27.5828 44.68C26.9785 44.2375 26.2489 43.9994 25.5 44.0001C25.3067 44.0082 25.1145 43.9686 24.9401 43.8849C24.7657 43.8012 24.6146 43.676 24.5 43.5201L19.9 35.8701C19.8122 35.7181 19.766 35.5457 19.766 35.3701C19.766 35.1946 19.8122 35.0221 19.9 34.8701L28.36 20.7701C29.0164 19.6598 30.0335 18.808 31.2417 18.3567C32.45 17.9054 33.7765 17.8819 35 18.2901C36.3091 18.7501 37.4116 19.6612 38.11 20.8601L40.9 25.5201C41.1205 25.8799 41.4492 26.1606 41.8389 26.3223C42.2287 26.484 42.6596 26.5182 43.07 26.4201C43.9711 26.2413 44.9053 26.3389 45.75 26.7001C46.6516 27.0918 47.4048 27.7609 47.9 28.6101L62.86 53.4901C62.95 53.6419 62.9982 53.8149 62.9998 53.9914C63.0013 54.1679 62.9561 54.3416 62.8688 54.495C62.7814 54.6484 62.655 54.7759 62.5024 54.8646C62.3499 54.9533 62.1765 55.0001 62 55.0001ZM50.66 53.0001H60.23L46.23 29.6401C45.9464 29.1552 45.5155 28.7733 45 28.5501C44.5235 28.336 43.992 28.2766 43.48 28.3801C42.6638 28.5589 41.8121 28.4775 41.0445 28.1475C40.2769 27.8175 39.6319 27.2554 39.2 26.5401L36.41 21.8901C35.9651 21.105 35.2565 20.5028 34.41 20.1901C33.6218 19.9202 32.7649 19.9288 31.9823 20.2146C31.1997 20.5003 30.5388 21.0458 30.11 21.7601L22 35.3501L26 42.0001C26.9329 42.0856 27.829 42.4055 28.6052 42.9299C29.3815 43.4544 30.0126 44.1665 30.44 45.0001C30.6264 44.9849 30.8136 44.9849 31 45.0001C32.0165 45.0035 32.9946 45.389 33.74 46.0801C34.5408 45.2167 35.5612 44.5871 36.6921 44.2586C37.8229 43.93 39.0218 43.9149 40.1606 44.2147C41.2994 44.5146 42.3353 45.1182 43.1578 45.961C43.9802 46.8039 44.5582 47.8543 44.83 49.0001C45.4793 48.9633 46.1229 49.1384 46.664 49.4991C47.2051 49.8599 47.6143 50.3866 47.83 51.0001C48.4353 51.0572 49.0151 51.2719 49.5117 51.6228C50.0082 51.9737 50.4041 52.4486 50.66 53.0001ZM21 25.0001H17C16.851 25.0028 16.7034 24.9722 16.5678 24.9106C16.4321 24.8489 16.312 24.7577 16.2162 24.6436C16.1203 24.5296 16.0512 24.3955 16.0138 24.2513C15.9764 24.1071 15.9717 23.9564 16 23.8101C16.0104 23.707 16.0104 23.6032 16 23.5001C16.0042 23.1469 15.8845 22.8033 15.6616 22.5292C15.4387 22.2552 15.1267 22.0679 14.78 22.0001C14.5744 21.96 14.3866 21.8565 14.2431 21.7039C14.0996 21.5514 14.0075 21.3577 13.98 21.1501C13.9575 20.4871 13.6724 19.8601 13.1877 19.4072C12.7029 18.9543 12.058 18.7126 11.395 18.7351C10.732 18.7577 10.105 19.0427 9.65213 19.5275C9.19923 20.0122 8.95746 20.6571 8.98 21.3201C8.96985 21.4915 8.91575 21.6574 8.8229 21.8018C8.73006 21.9462 8.60161 22.0643 8.44991 22.1446C8.2982 22.225 8.12837 22.265 7.95674 22.2607C7.78512 22.2564 7.61749 22.208 7.47 22.1201C7.28079 22.013 7.06184 21.9705 6.8463 21.999C6.63076 22.0275 6.43039 22.1255 6.27552 22.2781C6.12066 22.4307 6.01975 22.6296 5.98808 22.8447C5.95641 23.0598 5.9957 23.2794 6.1 23.4701C6.19384 23.6202 6.24616 23.7925 6.25163 23.9694C6.25709 24.1463 6.2155 24.3215 6.13109 24.4771C6.04669 24.6327 5.92251 24.7631 5.77122 24.855C5.61994 24.9469 5.44697 24.9969 5.27 25.0001H2C1.73478 25.0001 1.48043 24.8948 1.29289 24.7072C1.10536 24.5197 1 24.2653 1 24.0001C1 23.7349 1.10536 23.4805 1.29289 23.293C1.48043 23.1055 1.73478 23.0001 2 23.0001H4C4 22.2045 4.31607 21.4414 4.87868 20.8788C5.44129 20.3162 6.20435 20.0001 7 20.0001H7.25C7.56661 19.0999 8.16118 18.3237 8.94783 17.7835C9.73447 17.2434 10.6725 16.9673 11.6263 16.9951C12.5801 17.0229 13.5005 17.3532 14.2543 17.9383C15.0081 18.5234 15.5564 19.333 15.82 20.2501C16.3922 20.4778 16.8946 20.8515 17.2771 21.3341C17.6597 21.8166 17.9089 22.3911 18 23.0001H21C21.2652 23.0001 21.5196 23.1055 21.7071 23.293C21.8946 23.4805 22 23.7349 22 24.0001C22 24.2653 21.8946 24.5197 21.7071 24.7072C21.5196 24.8948 21.2652 25.0001 21 25.0001ZM62 17.0001H58C57.851 17.0028 57.7034 16.9722 57.5677 16.9106C57.4321 16.8489 57.312 16.7577 57.2162 16.6436C57.1203 16.5296 57.0512 16.3955 57.0138 16.2513C56.9764 16.1071 56.9717 15.9564 57 15.8101C57.0104 15.707 57.0104 15.6032 57 15.5001C57.0042 15.1469 56.8845 14.8033 56.6616 14.5292C56.4387 14.2552 56.1267 14.0679 55.78 14.0001C55.5744 13.96 55.3866 13.8565 55.2431 13.704C55.0996 13.5514 55.0075 13.3577 54.98 13.1501C54.9575 12.4871 54.6724 11.8601 54.1877 11.4072C53.7029 10.9543 53.058 10.7126 52.395 10.7351C51.732 10.7577 51.105 11.0427 50.6521 11.5275C50.1992 12.0122 49.9575 12.6571 49.98 13.3201C49.9698 13.4915 49.9157 13.6574 49.8229 13.8018C49.7301 13.9462 49.6016 14.0643 49.4499 14.1446C49.2982 14.225 49.1284 14.265 48.9567 14.2607C48.7851 14.2564 48.6175 14.208 48.47 14.1201C48.2808 14.013 48.0618 13.9705 47.8463 13.999C47.6308 14.0275 47.4304 14.1255 47.2755 14.2781C47.1207 14.4307 47.0198 14.6296 46.9881 14.8447C46.9564 15.0598 46.9957 15.2794 47.1 15.4701C47.1938 15.6202 47.2462 15.7925 47.2516 15.9694C47.2571 16.1463 47.2155 16.3215 47.1311 16.4771C47.0467 16.6327 46.9225 16.7631 46.7712 16.855C46.6199 16.9469 46.447 16.9969 46.27 17.0001H43C42.7348 17.0001 42.4804 16.8948 42.2929 16.7072C42.1054 16.5197 42 16.2653 42 16.0001C42 15.7349 42.1054 15.4805 42.2929 15.293C42.4804 15.1055 42.7348 15.0001 43 15.0001H45C45 14.2045 45.3161 13.4414 45.8787 12.8788C46.4413 12.3162 47.2044 12.0001 48 12.0001H48.25C48.5666 11.0999 49.1612 10.3237 49.9478 9.78352C50.7345 9.24336 51.6725 8.96725 52.6263 8.99508C53.5801 9.0229 54.5005 9.35322 55.2543 9.93832C56.0081 10.5234 56.5564 11.333 56.82 12.2501C57.3922 12.4778 57.8946 12.8515 58.2771 13.3341C58.6597 13.8166 58.9089 14.3911 59 15.0001H62C62.2652 15.0001 62.5196 15.1055 62.7071 15.293C62.8946 15.4805 63 15.7349 63 16.0001C63 16.2653 62.8946 16.5197 62.7071 16.7072C62.5196 16.8948 62.2652 17.0001 62 17.0001ZM22 19.0001C21.0111 19.0001 20.0444 18.7069 19.2221 18.1575C18.3999 17.6081 17.759 16.8272 17.3806 15.9135C17.0022 14.9999 16.9031 13.9946 17.0961 13.0247C17.289 12.0548 17.7652 11.1638 18.4645 10.4646C19.1637 9.76532 20.0546 9.28911 21.0245 9.09619C21.9945 8.90326 22.9998 9.00228 23.9134 9.38072C24.827 9.75916 25.6079 10.4 26.1573 11.2223C26.7068 12.0445 27 13.0112 27 14.0001C27 15.3262 26.4732 16.598 25.5355 17.5356C24.5979 18.4733 23.3261 19.0001 22 19.0001ZM22 11.0001C21.4067 11.0001 20.8266 11.1761 20.3333 11.5057C19.8399 11.8354 19.4554 12.3039 19.2284 12.8521C19.0013 13.4002 18.9419 14.0034 19.0576 14.5854C19.1734 15.1673 19.4591 15.7019 19.8787 16.1214C20.2982 16.541 20.8328 16.8267 21.4147 16.9425C21.9967 17.0582 22.5999 16.9988 23.1481 16.7718C23.6962 16.5447 24.1648 16.1602 24.4944 15.6668C24.8241 15.1735 25 14.5935 25 14.0001C25 13.2045 24.6839 12.4414 24.1213 11.8788C23.5587 11.3162 22.7956 11.0001 22 11.0001ZM19 48.3001C18.7864 48.2985 18.5788 48.2284 18.4079 48.1003C18.2369 47.9721 18.1115 47.7926 18.05 47.588C17.9885 47.3834 17.9942 47.1644 18.0662 46.9633C18.1381 46.7621 18.2727 46.5893 18.45 46.4701C18.5779 46.3815 18.7154 46.3077 18.86 46.2501C18.9808 46.1865 19.1133 46.1482 19.2494 46.1377C19.3855 46.1273 19.5223 46.1448 19.6514 46.1892C19.7805 46.2336 19.8992 46.3039 20 46.3959C20.1009 46.4879 20.1819 46.5995 20.2379 46.724C20.294 46.8485 20.324 46.9831 20.3261 47.1196C20.3282 47.2561 20.3023 47.3916 20.25 47.5177C20.1977 47.6438 20.1202 47.7579 20.0222 47.8529C19.9241 47.9479 19.8077 48.0218 19.68 48.0701L19.55 48.1301C19.389 48.2429 19.1966 48.3024 19 48.3001Z" fill="black"/>
    <path d="M22.0001 50C21.7349 50 21.4805 49.8947 21.293 49.7071C21.1055 49.5196 21.0001 49.2653 21.0001 49C20.9998 48.8327 20.9576 48.6681 20.8772 48.5214C20.7969 48.3746 20.6809 48.2504 20.5401 48.16C20.4222 48.0928 20.3192 48.0022 20.2374 47.8938C20.1556 47.7854 20.0967 47.6615 20.0644 47.5296C20.0321 47.3978 20.0269 47.2607 20.0493 47.1268C20.0716 46.9929 20.121 46.8649 20.1944 46.7507C20.2679 46.6365 20.3638 46.5384 20.4763 46.4625C20.5889 46.3865 20.7157 46.3343 20.8491 46.309C20.9825 46.2836 21.1197 46.2858 21.2522 46.3152C21.3848 46.3446 21.51 46.4007 21.6201 46.48C22.0426 46.7511 22.3903 47.1238 22.6314 47.5641C22.8725 48.0044 22.9993 48.4981 23.0001 49C23.0001 49.2653 22.8948 49.5196 22.7072 49.7071C22.5197 49.8947 22.2653 50 22.0001 50ZM28.0001 50C27.7349 50 27.4805 49.8947 27.293 49.7071C27.1055 49.5196 27.0001 49.2653 27.0001 49C26.9995 48.2493 27.2102 47.5135 27.6081 46.8769C28.006 46.2403 28.575 45.7285 29.2501 45.4C29.3683 45.3423 29.4967 45.3083 29.628 45.3002C29.7593 45.292 29.891 45.3098 30.0154 45.3525C30.1398 45.3952 30.2546 45.462 30.3532 45.5491C30.4518 45.6362 30.5323 45.7419 30.5901 45.86C30.6479 45.9782 30.6818 46.1066 30.69 46.2379C30.6981 46.3693 30.6804 46.5009 30.6376 46.6253C30.5949 46.7497 30.5281 46.8645 30.441 46.9632C30.354 47.0618 30.2483 47.1423 30.1301 47.2C29.7916 47.3636 29.5061 47.6192 29.3062 47.9375C29.1064 48.2559 29.0003 48.6241 29.0001 49C29.0001 49.2653 28.8948 49.5196 28.7072 49.7071C28.5197 49.8947 28.2653 50 28.0001 50ZM14.0001 42C13.8206 42 13.6445 41.9516 13.4901 41.86L10.4001 40C10.1999 39.8544 10.0608 39.6397 10.0098 39.3975C9.95873 39.1553 9.99935 38.9027 10.1238 38.6887C10.2482 38.4747 10.4476 38.3144 10.6834 38.2389C10.9191 38.1634 11.1745 38.1781 11.4001 38.28L14.0001 39.82L16.4801 38.17C16.6064 38.0852 16.7505 38.0302 16.9012 38.0094C17.052 37.9886 17.2055 38.0025 17.3501 38.05L20.0001 39L22.6701 38.1C22.8174 38.0484 22.9747 38.0319 23.1295 38.052C23.2843 38.072 23.4322 38.128 23.5615 38.2155C23.6908 38.303 23.7978 38.4195 23.8739 38.5557C23.9501 38.6919 23.9933 38.8441 24.0001 39C24.0068 39.2285 23.935 39.4523 23.7967 39.6342C23.6584 39.8162 23.462 39.9453 23.2401 40L20.3201 41C20.1125 41.0701 19.8877 41.0701 19.6801 41L17.1501 40.15L14.5501 41.88C14.3821 41.9719 14.1912 42.0135 14.0001 42ZM41.0001 35C40.86 34.9946 40.7226 34.9597 40.5968 34.8977C40.4711 34.8357 40.3598 34.7479 40.2701 34.64L35.7101 29.16L33.3201 30C33.1755 30.0476 33.022 30.0615 32.8712 30.0407C32.7205 30.0199 32.5764 29.9649 32.4501 29.88L30.0001 28.18L24.0001 31.79C23.887 31.8723 23.7578 31.93 23.621 31.9592C23.4841 31.9885 23.3427 31.9887 23.2058 31.9598C23.0688 31.931 22.9395 31.8737 22.8261 31.7917C22.7127 31.7097 22.6178 31.6049 22.5475 31.4839C22.4771 31.363 22.433 31.2286 22.4178 31.0895C22.4027 30.9504 22.4169 30.8096 22.4596 30.6764C22.5022 30.5431 22.5724 30.4203 22.6655 30.3159C22.7586 30.2114 22.8726 30.1277 23.0001 30.07L29.5501 26.14C29.7091 26.0407 29.8927 25.988 30.0801 25.988C30.2675 25.988 30.4512 26.0407 30.6101 26.14L33.2101 27.87L35.7401 27.02C35.9318 26.9554 36.1387 26.9504 36.3333 27.0057C36.5279 27.0611 36.7011 27.1742 36.8301 27.33L41.1301 32.49L43.3501 30.26C43.4622 30.1541 43.5972 30.0755 43.7446 30.0304C43.8921 29.9853 44.048 29.9749 44.2001 30L49.0001 31C49.2653 31.0518 49.4991 31.2067 49.6501 31.4308C49.8011 31.6549 49.8568 31.9298 49.8051 32.195C49.7534 32.4603 49.5984 32.6941 49.3743 32.845C49.1502 32.996 48.8753 33.0518 48.6101 33L44.3701 32.15L41.7501 34.78C41.6463 34.8652 41.5264 34.9286 41.3975 34.9663C41.2686 35.0041 41.1335 35.0156 41.0001 35Z" fill="black"/>
    <path d="M50 55.0001H5.00002C4.7348 55.0001 4.48045 54.8947 4.29291 54.7072C4.10537 54.5197 4.00002 54.2653 4.00002 54.0001C3.99799 53.1264 4.18681 52.2627 4.55328 51.4696C4.91976 50.6764 5.45504 49.9729 6.12171 49.4081C6.78838 48.8433 7.57035 48.431 8.41297 48.1999C9.25558 47.9688 10.1385 47.9245 11 48.0701C11.7685 47.0083 12.9233 46.2907 14.2157 46.0718C15.5081 45.853 16.8348 46.1504 17.91 46.9001C17.9926 46.8121 18.083 46.7318 18.18 46.6601C18.2696 46.5808 18.3668 46.5105 18.47 46.4501L18.86 46.2501H19.01C19.1721 46.1765 19.3438 46.126 19.52 46.1001C19.7654 46.0651 20.0146 46.0651 20.26 46.1001C20.582 44.9689 21.2575 43.9704 22.1878 43.2506C23.118 42.5309 24.2542 42.1277 25.43 42.1001H25.55C26.5669 42.0985 27.5644 42.3778 28.4326 42.9071C29.3007 43.4365 30.0058 44.1954 30.47 45.1001C30.6438 45.053 30.821 45.0196 31 45.0001C32.0165 45.0035 32.9946 45.389 33.74 46.0801C34.5409 45.2167 35.5612 44.5871 36.6921 44.2586C37.8229 43.93 39.0218 43.9149 40.1606 44.2147C41.2994 44.5146 42.3353 45.1182 43.1578 45.961C43.9802 46.8039 44.5582 47.8543 44.83 49.0001C45.4793 48.9633 46.1229 49.1384 46.664 49.4991C47.2051 49.8599 47.6143 50.3866 47.83 51.0001C48.5763 51.0704 49.2803 51.3785 49.8384 51.879C50.3965 52.3794 50.7791 53.0458 50.93 53.7801C50.9586 53.9254 50.9546 54.0752 50.9183 54.2187C50.882 54.3623 50.8143 54.4959 50.72 54.6101C50.6343 54.7222 50.5259 54.815 50.4018 54.8822C50.2777 54.9494 50.1408 54.9896 50 55.0001ZM6.13002 53.0001H46.69C46.5702 52.9602 46.4584 52.8993 46.36 52.8201C46.2471 52.7261 46.1564 52.6083 46.0941 52.4753C46.0319 52.3422 45.9998 52.197 46 52.0501C46 51.7849 45.8947 51.5305 45.7071 51.343C45.5196 51.1555 45.2652 51.0501 45 51.0501C44.8379 51.0413 44.6771 51.0832 44.54 51.1701C44.3924 51.2656 44.2223 51.3205 44.0467 51.3293C43.8712 51.3381 43.6964 51.3004 43.54 51.2201C43.3829 51.1389 43.2501 51.0174 43.1552 50.868C43.0603 50.7187 43.0068 50.5469 43 50.3701C42.9638 49.3959 42.6114 48.4599 41.9962 47.7036C41.381 46.9473 40.5363 46.4118 39.5899 46.1781C38.6434 45.9443 37.6466 46.0249 36.75 46.4077C35.8534 46.7905 35.1057 47.4548 34.62 48.3001C34.53 48.4606 34.3973 48.5932 34.2368 48.6832C34.0762 48.7732 33.8939 48.8171 33.71 48.8101C33.5256 48.8031 33.3467 48.7452 33.1932 48.6429C33.0396 48.5405 32.9174 48.3976 32.84 48.2301C32.6884 47.8667 32.433 47.5562 32.1057 47.3374C31.7783 47.1186 31.3937 47.0013 31 47.0001C30.9137 46.9898 30.8264 46.9898 30.74 47.0001L30.38 46.0601L30.58 47.0601H30.48C30.4301 47.0644 30.3799 47.0644 30.33 47.0601L30.14 47.1301C30.0121 47.1732 29.8768 47.19 29.7422 47.1794C29.6076 47.1688 29.4766 47.131 29.357 47.0684C29.2373 47.0058 29.1317 46.9196 29.0463 46.8151C28.9608 46.7106 28.8975 46.5898 28.86 46.4601C28.625 45.6694 28.1183 44.9871 27.4293 44.5335C26.7403 44.08 25.9132 43.8844 25.094 43.9813C24.2748 44.0782 23.5162 44.4613 22.9519 45.063C22.3877 45.6647 22.0541 46.4464 22.01 47.2701C22.0005 47.4462 21.9447 47.6166 21.8481 47.7641C21.7515 47.9117 21.6176 48.031 21.46 48.1101C21.3028 48.1889 21.1275 48.2249 20.952 48.2144C20.7764 48.2038 20.6067 48.1472 20.46 48.0501L20.34 47.9901C20.1876 47.9658 20.0324 47.9658 19.88 47.9901C19.7833 48.0302 19.6828 48.0604 19.58 48.0801L19.44 48.1501H19.38C19.3195 48.1957 19.2656 48.2496 19.22 48.3101C19.1809 48.356 19.1474 48.4064 19.12 48.4601C19.0878 48.5244 19.061 48.5913 19.04 48.6601C18.9894 48.8346 18.8922 48.992 18.7589 49.1154C18.6256 49.2388 18.4612 49.3236 18.2833 49.3606C18.1055 49.3976 17.9209 49.3855 17.7494 49.3255C17.5779 49.2655 17.426 49.1599 17.31 49.0201C16.992 48.6342 16.5825 48.334 16.1188 48.1467C15.6552 47.9594 15.1521 47.8909 14.6553 47.9475C14.1584 48.0042 13.6836 48.1841 13.274 48.471C12.8644 48.7578 12.5331 49.1426 12.31 49.5901C12.2027 49.8006 12.0243 49.9663 11.8065 50.0578C11.5887 50.1493 11.3455 50.1608 11.12 50.0901C10.7526 50.009 10.3757 49.9787 10 50.0001C9.11374 50.0008 8.25279 50.2958 7.55233 50.8387C6.85187 51.3817 6.35158 52.142 6.13002 53.0001Z" fill="black"/>
</svg>
