<svg width="32" height="32" viewBox="0 0 32 32" fill="none" xmlns="http://www.w3.org/2000/svg">
    <g clip-path="url(#clip0_232_2007)">
        <path d="M8.1002 13.5L7.7002 13.1L19.6002 1.30005C19.6002 1.20005 19.7002 1.20005 19.8002 1.20005C20.5002 0.500049 21.5002 0.500049 22.2002 1.20005C22.3002 1.30005 22.3002 1.30005 22.4002 1.40005L30.9002 9.90005C31.7002 10.7 31.7002 11.9 30.9002 12.7L29.9002 13.6" fill="#37B678"/>
        <path d="M10.2002 13.5L20.4002 3.29995C20.6002 3.39995 20.8002 3.39995 21.0002 3.39995C21.2002 3.39995 21.4002 3.29995 21.6002 3.19995L28.8002 10.4C28.7002 10.6 28.7002 10.8 28.7002 11C28.7002 11.2 28.8002 11.4 28.8002 11.6L27.1002 13.3" fill="#00A653"/>
        <path d="M21.2998 13.5C21.2998 13.4 21.2998 13.3 21.2998 13.2C21.2998 11.8 20.1998 10.7 18.7998 10.7C17.3998 10.7 16.2998 11.8 16.2998 13.2C16.2998 13.3 16.2998 13.4 16.2998 13.5" fill="#FDD402"/>
        <path d="M2.5 13.5H29.5C30.6 13.5 31.5 14.4 31.5 15.5V29.5C31.5 30.6 30.6 31.5 29.5 31.5H2.5C1.4 31.5 0.5 30.6 0.5 29.5V15.5C0.5 14.4 1.4 13.5 2.5 13.5Z" fill="#B28966"/>
        <path d="M21.5 19.5H31.5V25.5H21.5C19.8 25.5 18.5 24.2 18.5 22.5C18.5 20.8 19.8 19.5 21.5 19.5Z" fill="#8B6847"/>
        <path d="M21.5 23.5C22.0523 23.5 22.5 23.0523 22.5 22.5C22.5 21.9477 22.0523 21.5 21.5 21.5C20.9477 21.5 20.5 21.9477 20.5 22.5C20.5 23.0523 20.9477 23.5 21.5 23.5Z" fill="white"/>
        <path d="M9.5 28.5C12.8137 28.5 15.5 25.8137 15.5 22.5C15.5 19.1863 12.8137 16.5 9.5 16.5C6.18629 16.5 3.5 19.1863 3.5 22.5C3.5 25.8137 6.18629 28.5 9.5 28.5Z" fill="#FDD402"/>
        <path d="M9.7 19.9C10.3 19.9 10.7 20.3 10.7 20.9C10.7 21.2 10.9 21.4 11.2 21.4C11.5 21.4 11.7 21.2 11.7 20.9C11.7 20 11.1 19.2 10.2 19V18.4C10.2 18.1 10 17.9 9.7 17.9C9.4 17.9 9.2 18.1 9.2 18.4V19C8.1 19.3 7.5 20.4 7.8 21.4C8 22.3 8.8 22.9 9.7 22.9C10.3 22.9 10.7 23.3 10.7 23.9C10.7 24.5 10.3 24.9 9.7 24.9C9.1 24.9 8.7 24.5 8.7 23.9C8.7 23.6 8.5 23.4 8.2 23.4C7.9 23.4 7.7 23.6 7.7 23.9C7.7 24.8 8.3 25.6 9.2 25.8V26.4C9.2 26.7 9.4 26.9 9.7 26.9C10 26.9 10.2 26.7 10.2 26.4V25.8C11.3 25.5 11.9 24.4 11.6 23.4C11.4 22.5 10.6 21.9 9.7 21.9C9.1 21.9 8.7 21.5 8.7 20.9C8.7 20.3 9.2 19.9 9.7 19.9ZM30.8 13.3L31.2 12.9C31.7 12.4 31.9 11.8 31.9 11.1C31.9 10.4 31.6 9.79996 31.2 9.29996L22.7 0.799965C22.6 0.699965 22.6 0.699965 22.5 0.599965C21.7 -0.200035 20.3 -0.300035 19.4 0.599965C19.3 0.699965 19.2 0.699965 19.2 0.799965L7.2 12.9H2.5C1.1 12.9 0 14 0 15.4V29.4C0 30.8 1.1 31.9 2.5 31.9H29.5C30.9 31.9 32 30.8 32 29.4V15.4C32 14.6 31.6 13.8 30.8 13.3ZM20 1.59996C20.1 1.49996 20.2 1.39996 20.2 1.39996C20.7 0.899965 21.5 0.899965 22 1.39996C22.1 1.39996 22.1 1.49996 22.1 1.49996L30.6 9.99996C30.9 10.3 31 10.7 31 11.1C31 11.5 30.8 11.9 30.6 12.2L29.8 13C29.7 13 29.6 13 29.5 13H28.4L29.2 12.2C29.4 12 29.4 11.8 29.3 11.6C29.2 11.5 29.2 11.3 29.2 11.2C29.2 11 29.2 10.9 29.3 10.8C29.4 10.6 29.4 10.4 29.2 10.2L22 2.89996C21.8 2.69996 21.6 2.69996 21.4 2.79996C21.1 2.89996 20.8 2.89996 20.6 2.79996C20.4 2.69996 20.2 2.79996 20 2.89996L10 12.9H8.6L20 1.59996ZM28.3 11.7L27 12.9H21.8C21.7 11.3 20.3 9.99997 18.6 10.1C17.1 10.2 15.9 11.4 15.8 12.9H11.4L20.5 3.79996C20.8 3.89996 21.2 3.89996 21.5 3.79996L28.3 10.6C28.3 10.8 28.2 10.9 28.2 11.1C28.2 11.3 28.2 11.5 28.3 11.7ZM20.8 12.9H16.8C16.9 11.8 17.9 11 19 11.1C19.9 11.2 20.7 12 20.8 12.9ZM31 24.9H21.5C20.7 24.9 20 24.6 19.5 24C19.1 23.6 19 23 19 22.4C19 22.3 19 22.2 19 22.1C19.1 20.9 20 20 21.2 19.9C21.3 19.9 21.4 19.9 21.5 19.9H31V24.9ZM31 18.9H21.5C21.4 18.9 21.2 18.9 21.1 18.9C19.5 19.1 18.2 20.4 18 22C18 22.1 18 22.2 18 22.4C18 23.2 18.3 24 18.8 24.6C19.5 25.4 20.5 25.9 21.5 25.9H31V29.4C31 30.2 30.3 30.9 29.5 30.9H2.5C1.7 30.9 1 30.2 1 29.4V15.4C1 14.6 1.7 13.9 2.5 13.9H29.5C29.6 13.9 29.7 13.9 29.8 13.9C30.5 14.1 30.9 14.7 30.9 15.4V18.9H31ZM20 22.4C20 23.2 20.7 23.9 21.5 23.9C22.3 23.9 23 23.2 23 22.4C23 21.6 22.3 20.9 21.5 20.9C20.7 20.9 20 21.6 20 22.4ZM22 22.4C22 22.7 21.8 22.9 21.5 22.9C21.2 22.9 21 22.7 21 22.4C21 22.1 21.2 21.9 21.5 21.9C21.8 21.9 22 22.2 22 22.4ZM9.5 15.9C5.9 15.9 3 18.8 3 22.4C3 26 5.9 28.9 9.5 28.9C13.1 28.9 16 26 16 22.4C16 18.9 13.1 15.9 9.5 15.9ZM9.5 27.9C6.5 27.9 4 25.4 4 22.4C4 19.4 6.5 16.9 9.5 16.9C12.5 16.9 15 19.4 15 22.4C15 25.5 12.5 27.9 9.5 27.9Z" fill="black"/>
    </g>
    <defs>
        <clipPath id="clip0_232_2007">
            <rect width="32" height="32" fill="white"/>
        </clipPath>
    </defs>
</svg>
