<svg width="64" height="64" viewBox="0 0 64 64" fill="none" xmlns="http://www.w3.org/2000/svg">
    <path d="M59.5041 42.108L54.9771 34.249H56.9381C56.9411 34.249 56.9451 34.249 56.9481 34.249C57.4831 34.278 57.9581 33.805 57.9581 33.249C57.9581 33 57.8671 32.772 57.7171 32.598L52.7741 24.017H54.1841C54.1911 24.017 54.1971 24.016 54.2041 24.017C54.7561 24.017 55.2041 23.57 55.2041 23.017C55.2041 22.768 55.1131 22.54 54.9631 22.366L47.9981 10.274C47.6411 9.655 46.6221 9.655 46.2651 10.274L39.2121 22.518C39.0341 22.828 39.0341 23.208 39.2131 23.517C39.3921 23.827 39.7221 24.017 40.0791 24.017H41.4891L39.1951 28L34.4131 19.7H36.2031C36.5601 19.7 36.8901 19.51 37.0691 19.2C37.2481 18.891 37.2481 18.511 37.0701 18.201L29.1801 4.501C29.0001 4.191 28.6701 4 28.3131 4C27.9561 4 27.6251 4.19 27.4471 4.5L19.5471 18.2C19.3681 18.51 19.3691 18.891 19.5471 19.2C19.7261 19.51 20.0561 19.7 20.4131 19.7H22.2021L20.4171 22.8L16.4201 15.85C16.2421 15.54 15.9111 15.349 15.5531 15.349C15.1951 15.349 14.8651 15.54 14.6861 15.85L8.44614 26.691C8.26814 27.001 8.26814 27.381 8.44714 27.691C8.62514 28 8.95614 28.19 9.31314 28.19H10.3541L6.00714 35.741C5.82914 36.051 5.82914 36.431 6.00814 36.741C6.18714 37.05 6.51714 37.24 6.87414 37.24H8.40314L4.49714 44.02C4.31914 44.33 4.31914 44.71 4.49814 45.019C4.67714 45.329 5.00714 45.519 5.36414 45.519H13.2581V59C13.2581 59.553 13.7061 60 14.2581 60H16.8451C17.3971 60 17.8451 59.553 17.8451 59V45.52H25.6751V58.939C25.6751 59.492 26.1231 59.939 26.6751 59.939H29.9471C30.4991 59.939 30.9471 59.492 30.9471 58.939V41.63H35.0361L34.7601 42.109C34.5821 42.419 34.5821 42.799 34.7611 43.108C34.9401 43.418 35.2701 43.608 35.6271 43.608H44.6861V58.97C44.6861 59.523 45.1341 59.97 45.6861 59.97H48.5821C49.1341 59.97 49.5821 59.523 49.5821 58.97V43.607H58.6411C58.9981 43.607 59.3281 43.417 59.5071 43.107C59.6821 42.799 59.6831 42.418 59.5041 42.108ZM15.8431 58H15.2561V45.521H15.8431V58ZM7.09314 43.52L10.9991 36.74C11.1771 36.43 11.1771 36.05 10.9981 35.741C10.8191 35.431 10.4891 35.241 10.1321 35.241H8.60214L12.9491 27.69C13.1271 27.38 13.1271 27 12.9481 26.69C12.7691 26.381 12.4391 26.191 12.0821 26.191H11.0411L15.5511 18.355L19.2611 24.806L18.2641 26.537C18.2261 26.581 18.1861 26.623 18.1551 26.674C18.1251 26.724 18.1061 26.779 18.0851 26.833L16.4641 29.654C16.2861 29.964 16.2871 30.344 16.4651 30.653C16.6431 30.962 16.9741 31.152 17.3311 31.152H19.7351L14.5651 40.132C14.3871 40.442 14.3871 40.822 14.5661 41.132C14.7451 41.441 15.0751 41.631 15.4321 41.631H22.9141L24.0021 43.521L7.09314 43.52ZM25.6721 42.411L25.2221 41.63H25.6721V42.411ZM28.9441 57.938H27.6721V41.63H28.9441V57.938ZM29.9591 39.63C29.9541 39.63 29.9501 39.627 29.9441 39.627H26.6721C26.6671 39.627 26.6631 39.63 26.6571 39.63H17.1611L22.3301 30.646C22.5071 30.336 22.5051 29.957 22.3261 29.649C22.1471 29.34 21.8181 29.151 21.4611 29.151H19.0591L19.8401 27.793C19.8651 27.76 19.8881 27.725 19.9091 27.689L24.7981 19.202C24.9771 18.892 24.9761 18.512 24.7981 18.202C24.6191 17.892 24.2891 17.702 23.9321 17.702H22.1431L28.3111 7.005L34.4731 17.7H32.6831C32.3261 17.7 31.9961 17.89 31.8171 18.2C31.6381 18.509 31.6381 18.889 31.8161 19.199L37.5491 29.15H35.1531C34.7961 29.15 34.4661 29.34 34.2871 29.649C34.1081 29.959 34.1081 30.339 34.2861 30.649L37.8201 36.791L36.1851 39.629L29.9591 39.63ZM37.3791 31.15L37.1301 31.582L36.8821 31.15H37.3791ZM47.5791 57.97H46.6831V43.607H47.5791V57.97ZM48.5791 41.607H45.6831H37.3541L41.8811 33.748C42.0591 33.438 42.0591 33.058 41.8801 32.749C41.7011 32.439 41.3711 32.249 41.0141 32.249H39.0531L44.0841 23.516C44.2621 23.206 44.2621 22.826 44.0831 22.517C43.9041 22.207 43.5741 22.017 43.2171 22.017H41.8071L47.1301 12.777L52.4531 22.017H51.0431C50.6861 22.017 50.3561 22.207 50.1771 22.517C49.9981 22.826 49.9981 23.206 50.1761 23.516L55.2071 32.249H53.2461C52.8891 32.249 52.5591 32.439 52.3801 32.749C52.2011 33.058 52.2011 33.438 52.3791 33.748L56.9061 41.607H48.5791ZM38.6641 34.249H39.2841L38.9741 34.788L38.6641 34.249Z" fill="black"/>
</svg>
